# xmcd CD database file
#
# Track frame offsets:
#	150
#	24467
#	48162
#	74207
#	92957
#	121205
#	137655
#	172255
#
# Disc length: 3061 seconds
#
# Revision: 0
# Processed by: cddbd v1.5.2PL0 Copyright (c) Steve Scherf et al.
# Submitted via: CDex 1.51
#
DISCID=740bf308
DTITLE=Hugo Liscano y Javier Galué - New Age
DYEAR=1997
DGENRE=New Age
TTITLE0=Manantial
TTITLE1=Whispering Jazz
TTITLE2=Where earth meet sky
TTITLE3=Era Afro-latina
TTITLE4=Luz de luna
TTITLE5=Simpleness
TTITLE6=Tres temas
TTITLE7=Cadencia española
EXTD=YEAR: 1997
EXTT0=
EXTT1=
EXTT2=
EXTT3=
EXTT4=
EXTT5=
EXTT6=
EXTT7=
PLAYORDER=
